<?xml version="1.0" encoding="utf-8"?>
<!-- Generator: Adobe Illustrator 20.1.0, SVG Export Plug-In . SVG Version: 6.00 Build 0)  -->
<svg version="1.1" id="图层_1" xmlns="http://www.w3.org/2000/svg" xmlns:xlink="http://www.w3.org/1999/xlink" x="0px" y="0px"
	 viewBox="0 0 56.7 56.7" style="enable-background:new 0 0 56.7 56.7;" xml:space="preserve">
<style type="text/css">
	.st0{fill:#666767;}
</style>
<g id="XMLID_127_">
	<g id="XMLID_337_">
		<path class="st0" d="M28,43C17.1,43,8,32.1,8,28c0-5,8.6-15,20-15c10.9,0,20,10.9,20,15C48,32.2,39.1,43,28,43z M28,15
			c-9.7,0-18,8.7-18,13c0,2.6,7.9,13,18,13c9.9,0,18-9.8,18-13C46,24.9,37.7,15,28,15z"/>
	</g>
	<path class="st0" d="M28,35.9c-4.4,0-8-3.6-8-7.9c0-4.4,3.6-7.9,8-7.9s8,3.6,8,7.9C36,32.4,32.4,35.9,28,35.9z M28,22.1
		c-3.3,0-6,2.7-6,5.9c0,3.3,2.7,5.9,6,5.9s6-2.7,6-5.9C34,24.7,31.3,22.1,28,22.1z"/>
</g>
</svg>
